<svg xmlns="http://www.w3.org/2000/svg" xmlns:xlink="http://www.w3.org/1999/xlink" version="1.1" class="marks" width="888" height="275" viewBox="0 0 888 275"><rect width="888" height="275" fill="white"/><g fill="none" stroke-miterlimit="10" transform="translate(83,38)"><g class="mark-group role-frame root" role="graphics-object" aria-roledescription="group mark container"><g transform="translate(0,0)"><path class="background" aria-hidden="true" d="M0.5,0.5h800v200h-800Z" stroke="#ddd"/><g><g class="mark-group role-axis" aria-hidden="true"><g transform="translate(0.5,200.5)"><path class="background" aria-hidden="true" d="M0,0h0v0h0Z" pointer-events="none"/><g><g class="mark-rule role-axis-grid" pointer-events="none"><line transform="translate(11,-200)" x2="0" y2="200" stroke="#ddd" stroke-width="1" opacity="1"/><line transform="translate(77,-200)" x2="0" y2="200" stroke="#ddd" stroke-width="1" opacity="1"/><line transform="translate(143,-200)" x2="0" y2="200" stroke="#ddd" stroke-width="1" opacity="1"/><line transform="translate(209,-200)" x2="0" y2="200" stroke="#ddd" stroke-width="1" opacity="1"/><line transform="translate(275,-200)" x2="0" y2="200" stroke="#ddd" stroke-width="1" opacity="1"/><line transform="translate(340,-200)" x2="0" y2="200" stroke="#ddd" stroke-width="1" opacity="1"/><line transform="translate(406,-200)" x2="0" y2="200" stroke="#ddd" stroke-width="1" opacity="1"/><line transform="translate(472,-200)" x2="0" y2="200" stroke="#ddd" stroke-width="1" opacity="1"/><line transform="translate(538,-200)" x2="0" y2="200" stroke="#ddd" stroke-width="1" opacity="1"/><line transform="translate(604,-200)" x2="0" y2="200" stroke="#ddd" stroke-width="1" opacity="1"/><line transform="translate(670,-200)" x2="0" y2="200" stroke="#ddd" stroke-width="1" opacity="1"/><line transform="translate(736,-200)" x2="0" y2="200" stroke="#ddd" stroke-width="1" opacity="1"/></g></g><path class="foreground" aria-hidden="true" d="" pointer-events="none" display="none"/></g></g><g class="mark-group role-axis" aria-hidden="true"><g transform="translate(0.5,0.5)"><path class="background" aria-hidden="true" d="M0,0h0v0h0Z" pointer-events="none"/><g><g class="mark-rule role-axis-grid" pointer-events="none"><line transform="translate(0,200)" x2="800" y2="0" stroke="#ddd" stroke-width="1" opacity="1"/><line transform="translate(0,160)" x2="800" y2="0" stroke="#ddd" stroke-width="1" opacity="1"/><line transform="translate(0,120)" x2="800" y2="0" stroke="#ddd" stroke-width="1" opacity="1"/><line transform="translate(0,80)" x2="800" y2="0" stroke="#ddd" stroke-width="1" opacity="1"/><line transform="translate(0,40)" x2="800" y2="0" stroke="#ddd" stroke-width="1" opacity="1"/><line transform="translate(0,0)" x2="800" y2="0" stroke="#ddd" stroke-width="1" opacity="1"/></g></g><path class="foreground" aria-hidden="true" d="" pointer-events="none" display="none"/></g></g><g class="mark-group role-axis" role="graphics-symbol" aria-roledescription="axis" aria-label="X-axis titled 'tx_block_time, x' for a time scale with values from Friday, 26 February 2021, 7:00:00 PM to Saturday, 22 May 2021, 8:00:00 PM"><g transform="translate(0.5,200.5)"><path class="background" aria-hidden="true" d="M0,0h0v0h0Z" pointer-events="none"/><g><g class="mark-rule role-axis-tick" pointer-events="none"><line transform="translate(11,0)" x2="0" y2="5" stroke="#888" stroke-width="1" opacity="1"/><line transform="translate(77,0)" x2="0" y2="5" stroke="#888" stroke-width="1" opacity="1"/><line transform="translate(143,0)" x2="0" y2="5" stroke="#888" stroke-width="1" opacity="1"/><line transform="translate(209,0)" x2="0" y2="5" stroke="#888" stroke-width="1" opacity="1"/><line transform="translate(275,0)" x2="0" y2="5" stroke="#888" stroke-width="1" opacity="1"/><line transform="translate(340,0)" x2="0" y2="5" stroke="#888" stroke-width="1" opacity="1"/><line transform="translate(406,0)" x2="0" y2="5" stroke="#888" stroke-width="1" opacity="1"/><line transform="translate(472,0)" x2="0" y2="5" stroke="#888" stroke-width="1" opacity="1"/><line transform="translate(538,0)" x2="0" y2="5" stroke="#888" stroke-width="1" opacity="1"/><line transform="translate(604,0)" x2="0" y2="5" stroke="#888" stroke-width="1" opacity="1"/><line transform="translate(670,0)" x2="0" y2="5" stroke="#888" stroke-width="1" opacity="1"/><line transform="translate(736,0)" x2="0" y2="5" stroke="#888" stroke-width="1" opacity="1"/></g><g class="mark-text role-axis-label" pointer-events="none"><text text-anchor="middle" transform="translate(11.372549019607844,15)" font-family="sans-serif" font-size="10px" fill="#000" opacity="1">Feb 28</text><text text-anchor="middle" transform="translate(77.25490196078432,15)" font-family="sans-serif" font-size="10px" fill="#000" opacity="1">Mar 07</text><text text-anchor="middle" transform="translate(143.13725490196077,15)" font-family="sans-serif" font-size="10px" fill="#000" opacity="1">Mar 14</text><text text-anchor="middle" transform="translate(208.62745098039218,15)" font-family="sans-serif" font-size="10px" fill="#000" opacity="1">Mar 21</text><text text-anchor="middle" transform="translate(274.5098039215686,15)" font-family="sans-serif" font-size="10px" fill="#000" opacity="1">Mar 28</text><text text-anchor="middle" transform="translate(340.3921568627451,15)" font-family="sans-serif" font-size="10px" fill="#000" opacity="1">Apr 04</text><text text-anchor="middle" transform="translate(406.27450980392155,15)" font-family="sans-serif" font-size="10px" fill="#000" opacity="1">Apr 11</text><text text-anchor="middle" transform="translate(472.15686274509807,15)" font-family="sans-serif" font-size="10px" fill="#000" opacity="1">Apr 18</text><text text-anchor="middle" transform="translate(538.0392156862746,15)" font-family="sans-serif" font-size="10px" fill="#000" opacity="1">Apr 25</text><text text-anchor="middle" transform="translate(603.9215686274509,15)" font-family="sans-serif" font-size="10px" fill="#000" opacity="1">May 02</text><text text-anchor="middle" transform="translate(669.8039215686275,15)" font-family="sans-serif" font-size="10px" fill="#000" opacity="1">May 09</text><text text-anchor="middle" transform="translate(735.6862745098039,15)" font-family="sans-serif" font-size="10px" fill="#000" opacity="1">May 16</text></g><g class="mark-rule role-axis-domain" pointer-events="none"><line transform="translate(0,0)" x2="800" y2="0" stroke="#888" stroke-width="1" opacity="1"/></g><g class="mark-text role-axis-title" pointer-events="none"><text text-anchor="middle" transform="translate(400,30)" font-family="sans-serif" font-size="11px" font-weight="bold" fill="#000" opacity="1">tx_block_time, x</text></g></g><path class="foreground" aria-hidden="true" d="" pointer-events="none" display="none"/></g></g><g class="mark-group role-axis" role="graphics-symbol" aria-roledescription="axis" aria-label="Y-axis titled 'amount' for a linear scale with values from 0 to 100,000,000"><g transform="translate(0.5,0.5)"><path class="background" aria-hidden="true" d="M0,0h0v0h0Z" pointer-events="none"/><g><g class="mark-rule role-axis-tick" pointer-events="none"><line transform="translate(0,200)" x2="-5" y2="0" stroke="#888" stroke-width="1" opacity="1"/><line transform="translate(0,160)" x2="-5" y2="0" stroke="#888" stroke-width="1" opacity="1"/><line transform="translate(0,120)" x2="-5" y2="0" stroke="#888" stroke-width="1" opacity="1"/><line transform="translate(0,80)" x2="-5" y2="0" stroke="#888" stroke-width="1" opacity="1"/><line transform="translate(0,40)" x2="-5" y2="0" stroke="#888" stroke-width="1" opacity="1"/><line transform="translate(0,0)" x2="-5" y2="0" stroke="#888" stroke-width="1" opacity="1"/></g><g class="mark-text role-axis-label" pointer-events="none"><text text-anchor="end" transform="translate(-7,203)" font-family="sans-serif" font-size="10px" fill="#000" opacity="1">0</text><text text-anchor="end" transform="translate(-7,163)" font-family="sans-serif" font-size="10px" fill="#000" opacity="1">20,000,000</text><text text-anchor="end" transform="translate(-7,123)" font-family="sans-serif" font-size="10px" fill="#000" opacity="1">40,000,000</text><text text-anchor="end" transform="translate(-7,83)" font-family="sans-serif" font-size="10px" fill="#000" opacity="1">60,000,000</text><text text-anchor="end" transform="translate(-7,42.99999999999999)" font-family="sans-serif" font-size="10px" fill="#000" opacity="1">80,000,000</text><text text-anchor="end" transform="translate(-7,3)" font-family="sans-serif" font-size="10px" fill="#000" opacity="1">100,000,000</text></g><g class="mark-rule role-axis-domain" pointer-events="none"><line transform="translate(0,200)" x2="0" y2="-200" stroke="#888" stroke-width="1" opacity="1"/></g><g class="mark-text role-axis-title" pointer-events="none"><text text-anchor="middle" transform="translate(-66.6103515625,100) rotate(-90) translate(0,-2)" font-family="sans-serif" font-size="11px" font-weight="bold" fill="#000" opacity="1">amount</text></g></g><path class="foreground" aria-hidden="true" d="" pointer-events="none" display="none"/></g></g><g class="mark-line role-mark layer_0_marks" role="graphics-object" aria-roledescription="line mark container"><path aria-label="tx_block_time: Feb 27, 2021; amount: 11730.880355" role="graphics-symbol" aria-roledescription="line mark" d="M5.838,199.977L8.717,199.977L8.717,199.96L8.882,199.96L8.882,199.945L8.958,199.945L8.958,199.93L17.942,199.93L17.942,198.552L18.106,198.552L18.106,197.211L18.201,197.211L18.201,196.285L27.957,196.285L27.957,195.241L38.953,195.241L38.953,185.241L39.067,185.241L39.067,179.241L53.262,179.241L53.262,174.759L57.889,174.759L57.889,172.671L71.357,172.671L71.357,170.018L74.11,170.018L74.11,167.218L85.071,167.218L85.071,165.218L100.219,165.218L100.219,163.218L101.006,163.218L101.006,161.218L103.701,161.218L103.701,159.218L122.169,159.218L122.169,157.218L141.677,157.218L141.677,156.218L147.326,156.218L147.326,153.818L147.38,153.818L147.38,154.819L150.106,154.819L150.106,153.619L160.208,153.619L160.208,153.219L197.19,153.219L197.19,151.219L202.645,151.219L202.645,149.219L203.425,149.219L203.425,147.219L212.684,147.219L212.684,145.219L215.29,145.219L215.29,143.219L225.957,143.219L225.957,142.219L226.382,142.219L226.382,141.219L226.719,141.219L226.719,140.219L259.586,140.219L259.586,136.419L260.786,136.419L260.786,135.419L262.891,135.419L262.891,134.219L279.289,134.219L279.289,132.619L280.147,132.619L280.147,131.619L298.372,131.619L298.372,130.275L298.416,130.275L298.416,129.975L318.253,129.975L318.253,129.629L329.328,129.629L329.328,129.409L358.58,129.409L358.58,127.409L358.965,127.409L358.965,126.764L372.707,126.764L372.707,126.33L382.281,126.33L382.281,124.33L383.079,124.33L383.079,123.33L385.805,123.33L385.805,121.73L392.699,121.73L392.699,119.33L394.855,119.33L394.855,118.83L460.559,118.83L460.559,114.83L460.688,114.83L460.688,111.83L460.84,111.83L460.84,110.23L485.434,110.23L485.434,108.23L487.252,108.23L487.252,107.23L497.164,107.23L497.164,105.23L504.258,105.23L504.258,103.23L504.673,103.23L504.673,101.23L551.472,101.23L551.472,100.13L554.213,100.13L554.213,99.13L559.584,99.13L559.584,97.13L560.193,97.13L560.193,95.13L562.153,95.13L562.153,93.13L562.887,93.13L562.887,91.13L565.263,91.13L565.263,88.53L565.525,88.53L565.525,86.53L569.571,86.53L569.571,83.93L571.667,83.93L571.667,81.93L579.95,81.93L579.95,81.13L580.379,81.13L580.379,80.13L592.009,80.13L592.009,79.13L598.561,79.13L598.561,77.93L602.219,77.93L602.219,76.73L602.441,76.73L602.441,74.73L608.126,74.73L608.126,74.13L608.881,74.13L608.881,72.73L610.938,72.73L610.938,70.73L612.321,70.73L612.321,69.33L612.488,69.33L612.488,68.33L612.581,68.33L612.581,65.33L613.522,65.33L613.522,64.13L618.769,64.13L618.769,62.502L622.26,62.502L622.26,58.502L627.461,58.502L627.461,56.502L628.253,56.502L628.253,54.502L628.686,54.502L628.686,52.502L629.238,52.502L629.238,51.302L631.203,51.302L631.203,49.302L631.527,49.302L631.527,47.302L635.955,47.302L635.955,45.302L637.352,45.302L637.352,41.302L639.148,41.302L639.148,39.302L644.471,39.302L644.471,37.302L648.866,37.302L648.866,34.702L663.825,34.702L663.825,33.902L670.446,33.902L670.446,31.902L673.863,31.902L673.863,30.502L674.113,30.502L674.113,28.502L682.836,28.502L682.836,27.502L683.858,27.502L683.858,26.502L694.004,26.502L694.004,25.502L723.157,25.502L723.157,25.102L743.668,25.102L743.668,16.702L745.394,16.702L745.394,24.502L745.417,24.502L745.417,25.102L756.096,25.102L756.096,25.969L756.155,25.969L756.155,28.052L761.765,28.052L761.765,36.576L761.957,36.576L761.957,43.806L763.636,43.806L763.636,51.892L763.744,51.892L763.744,58.084L763.895,58.084L763.895,64.255L764.11,64.255L764.11,68.254L767.348,68.254L767.348,77.206L767.376,77.206L767.376,84.515L767.403,84.515L767.403,90.126L767.763,90.126L767.763,95.624L767.775,95.624L767.775,97.365L767.781,97.365L767.781,100.249L767.883,100.249L767.883,104.533L767.891,104.533L767.891,108.236L767.9,108.236L767.9,113.241L772.012,113.241L772.012,120.241L772.062,120.241L772.062,124.327L772.073,124.327L772.073,127.671L772.095,127.671L772.095,133.571L772.119,133.571L772.119,136.568L772.127,136.568L772.127,140.876L789.531,140.876L789.531,145.078L789.546,145.078L789.546,149.048L789.551,149.048L789.551,152.341L789.921,152.341L789.921,155.141L790.079,155.141L790.079,156.974L790.091,156.974L790.091,157.917L790.116,157.917L790.116,162.581L790.319,162.581L790.319,167.311L790.392,167.311L790.392,173.949" stroke="#d62728" stroke-width="2"/></g><g class="mark-area role-mark layer_1_marks" role="graphics-object" aria-roledescription="area mark container"><path aria-label="tx_block_time: Feb 27, 2021; amount: 11730.880355" role="graphics-symbol" aria-roledescription="area mark" d="M5.838,199.977L8.717,199.977L8.717,199.96L8.882,199.96L8.882,199.945L8.958,199.945L8.958,199.93L17.942,199.93L17.942,198.552L18.106,198.552L18.106,197.211L18.201,197.211L18.201,196.285L27.957,196.285L27.957,195.241L38.953,195.241L38.953,185.241L39.067,185.241L39.067,179.241L53.262,179.241L53.262,174.759L57.889,174.759L57.889,172.671L71.357,172.671L71.357,170.018L74.11,170.018L74.11,167.218L85.071,167.218L85.071,165.218L100.219,165.218L100.219,163.218L101.006,163.218L101.006,161.218L103.701,161.218L103.701,159.218L122.169,159.218L122.169,157.218L141.677,157.218L141.677,156.218L147.326,156.218L147.326,153.818L147.38,153.818L147.38,154.819L150.106,154.819L150.106,153.619L160.208,153.619L160.208,153.219L197.19,153.219L197.19,151.219L202.645,151.219L202.645,149.219L203.425,149.219L203.425,147.219L212.684,147.219L212.684,145.219L215.29,145.219L215.29,143.219L225.957,143.219L225.957,142.219L226.382,142.219L226.382,141.219L226.719,141.219L226.719,140.219L259.586,140.219L259.586,136.419L260.786,136.419L260.786,135.419L262.891,135.419L262.891,134.219L279.289,134.219L279.289,132.619L280.147,132.619L280.147,131.619L298.372,131.619L298.372,130.275L298.416,130.275L298.416,129.975L318.253,129.975L318.253,129.629L329.328,129.629L329.328,129.409L358.58,129.409L358.58,127.409L358.965,127.409L358.965,126.764L372.707,126.764L372.707,126.33L382.281,126.33L382.281,124.33L383.079,124.33L383.079,123.33L385.805,123.33L385.805,121.73L392.699,121.73L392.699,119.33L394.855,119.33L394.855,118.83L460.559,118.83L460.559,114.83L460.688,114.83L460.688,111.83L460.84,111.83L460.84,110.23L485.434,110.23L485.434,108.23L487.252,108.23L487.252,107.23L497.164,107.23L497.164,105.23L504.258,105.23L504.258,103.23L504.673,103.23L504.673,101.23L551.472,101.23L551.472,100.13L554.213,100.13L554.213,99.13L559.584,99.13L559.584,97.13L560.193,97.13L560.193,95.13L562.153,95.13L562.153,93.13L562.887,93.13L562.887,91.13L565.263,91.13L565.263,88.53L565.525,88.53L565.525,86.53L569.571,86.53L569.571,83.93L571.667,83.93L571.667,81.93L579.95,81.93L579.95,81.13L580.379,81.13L580.379,80.13L592.009,80.13L592.009,79.13L598.561,79.13L598.561,77.93L602.219,77.93L602.219,76.73L602.441,76.73L602.441,74.73L608.126,74.73L608.126,74.13L608.881,74.13L608.881,72.73L610.938,72.73L610.938,70.73L612.321,70.73L612.321,69.33L612.488,69.33L612.488,68.33L612.581,68.33L612.581,65.33L613.522,65.33L613.522,64.13L618.769,64.13L618.769,62.502L622.26,62.502L622.26,58.502L627.461,58.502L627.461,56.502L628.253,56.502L628.253,54.502L628.686,54.502L628.686,52.502L629.238,52.502L629.238,51.302L631.203,51.302L631.203,49.302L631.527,49.302L631.527,47.302L635.955,47.302L635.955,45.302L637.352,45.302L637.352,41.302L639.148,41.302L639.148,39.302L644.471,39.302L644.471,37.302L648.866,37.302L648.866,34.702L663.825,34.702L663.825,33.902L670.446,33.902L670.446,31.902L673.863,31.902L673.863,30.502L674.113,30.502L674.113,28.502L682.836,28.502L682.836,27.502L683.858,27.502L683.858,26.502L694.004,26.502L694.004,25.502L723.157,25.502L723.157,25.102L743.668,25.102L743.668,16.702L745.394,16.702L745.394,24.502L745.417,24.502L745.417,25.102L756.096,25.102L756.096,25.969L756.155,25.969L756.155,28.052L761.765,28.052L761.765,36.576L761.957,36.576L761.957,43.806L763.636,43.806L763.636,51.892L763.744,51.892L763.744,58.084L763.895,58.084L763.895,64.255L764.11,64.255L764.11,68.254L767.348,68.254L767.348,77.206L767.376,77.206L767.376,84.515L767.403,84.515L767.403,90.126L767.763,90.126L767.763,95.624L767.775,95.624L767.775,97.365L767.781,97.365L767.781,100.249L767.883,100.249L767.883,104.533L767.891,104.533L767.891,108.236L767.9,108.236L767.9,113.241L772.012,113.241L772.012,120.241L772.062,120.241L772.062,124.327L772.073,124.327L772.073,127.671L772.095,127.671L772.095,133.571L772.119,133.571L772.119,136.568L772.127,136.568L772.127,140.876L789.531,140.876L789.531,145.078L789.546,145.078L789.546,149.048L789.551,149.048L789.551,152.341L789.921,152.341L789.921,155.141L790.079,155.141L790.079,156.974L790.091,156.974L790.091,157.917L790.116,157.917L790.116,162.581L790.319,162.581L790.319,167.311L790.392,167.311L790.392,173.949L790.392,200L790.392,200L790.319,200L790.319,200L790.116,200L790.116,200L790.091,200L790.091,200L790.079,200L790.079,200L789.921,200L789.921,200L789.551,200L789.551,200L789.546,200L789.546,200L789.531,200L789.531,200L772.127,200L772.127,200L772.119,200L772.119,200L772.095,200L772.095,200L772.073,200L772.073,200L772.062,200L772.062,200L772.012,200L772.012,200L767.9,200L767.9,200L767.891,200L767.891,200L767.883,200L767.883,200L767.781,200L767.781,200L767.775,200L767.775,200L767.763,200L767.763,200L767.403,200L767.403,200L767.376,200L767.376,200L767.348,200L767.348,200L764.11,200L764.11,200L763.895,200L763.895,200L763.744,200L763.744,200L763.636,200L763.636,200L761.957,200L761.957,200L761.765,200L761.765,200L756.155,200L756.155,200L756.096,200L756.096,200L745.417,200L745.417,200L745.394,200L745.394,200L743.668,200L743.668,200L723.157,200L723.157,200L694.004,200L694.004,200L683.858,200L683.858,200L682.836,200L682.836,200L674.113,200L674.113,200L673.863,200L673.863,200L670.446,200L670.446,200L663.825,200L663.825,200L648.866,200L648.866,200L644.471,200L644.471,200L639.148,200L639.148,200L637.352,200L637.352,200L635.955,200L635.955,200L631.527,200L631.527,200L631.203,200L631.203,200L629.238,200L629.238,200L628.686,200L628.686,200L628.253,200L628.253,200L627.461,200L627.461,200L622.26,200L622.26,200L618.769,200L618.769,200L613.522,200L613.522,200L612.581,200L612.581,200L612.488,200L612.488,200L612.321,200L612.321,200L610.938,200L610.938,200L608.881,200L608.881,200L608.126,200L608.126,200L602.441,200L602.441,200L602.219,200L602.219,200L598.561,200L598.561,200L592.009,200L592.009,200L580.379,200L580.379,200L579.95,200L579.95,200L571.667,200L571.667,200L569.571,200L569.571,200L565.525,200L565.525,200L565.263,200L565.263,200L562.887,200L562.887,200L562.153,200L562.153,200L560.193,200L560.193,200L559.584,200L559.584,200L554.213,200L554.213,200L551.472,200L551.472,200L504.673,200L504.673,200L504.258,200L504.258,200L497.164,200L497.164,200L487.252,200L487.252,200L485.434,200L485.434,200L460.84,200L460.84,200L460.688,200L460.688,200L460.559,200L460.559,200L394.855,200L394.855,200L392.699,200L392.699,200L385.805,200L385.805,200L383.079,200L383.079,200L382.281,200L382.281,200L372.707,200L372.707,200L358.965,200L358.965,200L358.58,200L358.58,200L329.328,200L329.328,200L318.253,200L318.253,200L298.416,200L298.416,200L298.372,200L298.372,200L280.147,200L280.147,200L279.289,200L279.289,200L262.891,200L262.891,200L260.786,200L260.786,200L259.586,200L259.586,200L226.719,200L226.719,200L226.382,200L226.382,200L225.957,200L225.957,200L215.29,200L215.29,200L212.684,200L212.684,200L203.425,200L203.425,200L202.645,200L202.645,200L197.19,200L197.19,200L160.208,200L160.208,200L150.106,200L150.106,200L147.38,200L147.38,200L147.326,200L147.326,200L141.677,200L141.677,200L122.169,200L122.169,200L103.701,200L103.701,200L101.006,200L101.006,200L100.219,200L100.219,200L85.071,200L85.071,200L74.11,200L74.11,200L71.357,200L71.357,200L57.889,200L57.889,200L53.262,200L53.262,200L39.067,200L39.067,200L38.953,200L38.953,200L27.957,200L27.957,200L18.201,200L18.201,200L18.106,200L18.106,200L17.942,200L17.942,200L8.958,200L8.958,200L8.882,200L8.882,200L8.717,200L8.717,200L5.838,200Z" fill="#d62728"/></g><g class="mark-rule role-mark layer_2_marks" role="graphics-object" aria-roledescription="rule mark container"><line aria-label="x: May 19, 2021" role="graphics-symbol" aria-roledescription="rule mark" transform="translate(763.921568627451,0)" x2="0" y2="200" stroke="grey" stroke-width="2" stroke-dasharray="10,2"/></g><g class="mark-group role-title"><g transform="translate(400,-33)"><path class="background" aria-hidden="true" d="M0,0h0v0h0Z" pointer-events="none"/><g><g class="mark-text role-title-text" role="graphics-symbol" aria-roledescription="title" aria-label="Title text 'Total Stabelcoins Borrowed'" pointer-events="none"><text text-anchor="middle" transform="translate(0,19)" font-family="sans-serif" font-size="24px" font-weight="bold" fill="#000" opacity="1">Total Stabelcoins Borrowed</text></g></g><path class="foreground" aria-hidden="true" d="" pointer-events="none" display="none"/></g></g></g><path class="foreground" aria-hidden="true" d="" display="none"/></g></g></g></svg>