<svg xmlns="http://www.w3.org/2000/svg" xmlns:xlink="http://www.w3.org/1999/xlink" version="1.1" class="marks" width="979" height="587" viewBox="0 0 979 587"><rect width="979" height="587" fill="white"/><g fill="none" stroke-miterlimit="10" transform="translate(59,33)"><g class="mark-group role-frame root" role="graphics-object" aria-roledescription="group mark container"><g transform="translate(0,0)"><path class="background" aria-hidden="true" d="M0,0h0v0h0Z"/><g><g class="mark-group role-scope concat_0_group" role="graphics-object" aria-roledescription="group mark container"><g transform="translate(0,0)"><path class="background" aria-hidden="true" d="M0,0h0v0h0Z"/><g/><path class="foreground" aria-hidden="true" d="" display="none"/></g></g><g class="mark-group role-scope concat_1_group" role="graphics-object" aria-roledescription="group mark container"><g transform="translate(0,40)"><path class="background" aria-hidden="true" d="M0.5,0.5h800v200h-800Z" stroke="#ddd"/><g><g class="mark-group role-axis" aria-hidden="true"><g transform="translate(0.5,200.5)"><path class="background" aria-hidden="true" d="M0,0h0v0h0Z" pointer-events="none"/><g><g class="mark-rule role-axis-grid" pointer-events="none"><line transform="translate(11,-200)" x2="0" y2="200" stroke="#ddd" stroke-width="1" opacity="1"/><line transform="translate(77,-200)" x2="0" y2="200" stroke="#ddd" stroke-width="1" opacity="1"/><line transform="translate(143,-200)" x2="0" y2="200" stroke="#ddd" stroke-width="1" opacity="1"/><line transform="translate(209,-200)" x2="0" y2="200" stroke="#ddd" stroke-width="1" opacity="1"/><line transform="translate(275,-200)" x2="0" y2="200" stroke="#ddd" stroke-width="1" opacity="1"/><line transform="translate(340,-200)" x2="0" y2="200" stroke="#ddd" stroke-width="1" opacity="1"/><line transform="translate(406,-200)" x2="0" y2="200" stroke="#ddd" stroke-width="1" opacity="1"/><line transform="translate(472,-200)" x2="0" y2="200" stroke="#ddd" stroke-width="1" opacity="1"/><line transform="translate(538,-200)" x2="0" y2="200" stroke="#ddd" stroke-width="1" opacity="1"/><line transform="translate(604,-200)" x2="0" y2="200" stroke="#ddd" stroke-width="1" opacity="1"/><line transform="translate(670,-200)" x2="0" y2="200" stroke="#ddd" stroke-width="1" opacity="1"/><line transform="translate(736,-200)" x2="0" y2="200" stroke="#ddd" stroke-width="1" opacity="1"/></g></g><path class="foreground" aria-hidden="true" d="" pointer-events="none" display="none"/></g></g><g class="mark-group role-axis" aria-hidden="true"><g transform="translate(0.5,0.5)"><path class="background" aria-hidden="true" d="M0,0h0v0h0Z" pointer-events="none"/><g><g class="mark-rule role-axis-grid" pointer-events="none"><line transform="translate(0,200)" x2="800" y2="0" stroke="#ddd" stroke-width="1" opacity="1"/><line transform="translate(0,138)" x2="800" y2="0" stroke="#ddd" stroke-width="1" opacity="1"/><line transform="translate(0,75)" x2="800" y2="0" stroke="#ddd" stroke-width="1" opacity="1"/><line transform="translate(0,13)" x2="800" y2="0" stroke="#ddd" stroke-width="1" opacity="1"/></g></g><path class="foreground" aria-hidden="true" d="" pointer-events="none" display="none"/></g></g><g class="mark-group role-axis" role="graphics-symbol" aria-roledescription="axis" aria-label="X-axis titled 'timestamp, x' for a time scale with values from Friday, 26 February 2021, 7:00:00 PM to Saturday, 22 May 2021, 8:00:00 PM"><g transform="translate(0.5,200.5)"><path class="background" aria-hidden="true" d="M0,0h0v0h0Z" pointer-events="none"/><g><g class="mark-rule role-axis-tick" pointer-events="none"><line transform="translate(11,0)" x2="0" y2="5" stroke="#888" stroke-width="1" opacity="1"/><line transform="translate(77,0)" x2="0" y2="5" stroke="#888" stroke-width="1" opacity="1"/><line transform="translate(143,0)" x2="0" y2="5" stroke="#888" stroke-width="1" opacity="1"/><line transform="translate(209,0)" x2="0" y2="5" stroke="#888" stroke-width="1" opacity="1"/><line transform="translate(275,0)" x2="0" y2="5" stroke="#888" stroke-width="1" opacity="1"/><line transform="translate(340,0)" x2="0" y2="5" stroke="#888" stroke-width="1" opacity="1"/><line transform="translate(406,0)" x2="0" y2="5" stroke="#888" stroke-width="1" opacity="1"/><line transform="translate(472,0)" x2="0" y2="5" stroke="#888" stroke-width="1" opacity="1"/><line transform="translate(538,0)" x2="0" y2="5" stroke="#888" stroke-width="1" opacity="1"/><line transform="translate(604,0)" x2="0" y2="5" stroke="#888" stroke-width="1" opacity="1"/><line transform="translate(670,0)" x2="0" y2="5" stroke="#888" stroke-width="1" opacity="1"/><line transform="translate(736,0)" x2="0" y2="5" stroke="#888" stroke-width="1" opacity="1"/></g><g class="mark-text role-axis-label" pointer-events="none"><text text-anchor="middle" transform="translate(11.372549019607844,15)" font-family="sans-serif" font-size="10px" fill="#000" opacity="1">Feb 28</text><text text-anchor="middle" transform="translate(77.25490196078432,15)" font-family="sans-serif" font-size="10px" fill="#000" opacity="1">Mar 07</text><text text-anchor="middle" transform="translate(143.13725490196077,15)" font-family="sans-serif" font-size="10px" fill="#000" opacity="1">Mar 14</text><text text-anchor="middle" transform="translate(208.62745098039218,15)" font-family="sans-serif" font-size="10px" fill="#000" opacity="1">Mar 21</text><text text-anchor="middle" transform="translate(274.5098039215686,15)" font-family="sans-serif" font-size="10px" fill="#000" opacity="1">Mar 28</text><text text-anchor="middle" transform="translate(340.3921568627451,15)" font-family="sans-serif" font-size="10px" fill="#000" opacity="1">Apr 04</text><text text-anchor="middle" transform="translate(406.27450980392155,15)" font-family="sans-serif" font-size="10px" fill="#000" opacity="1">Apr 11</text><text text-anchor="middle" transform="translate(472.15686274509807,15)" font-family="sans-serif" font-size="10px" fill="#000" opacity="1">Apr 18</text><text text-anchor="middle" transform="translate(538.0392156862746,15)" font-family="sans-serif" font-size="10px" fill="#000" opacity="1">Apr 25</text><text text-anchor="middle" transform="translate(603.9215686274509,15)" font-family="sans-serif" font-size="10px" fill="#000" opacity="1">May 02</text><text text-anchor="middle" transform="translate(669.8039215686275,15)" font-family="sans-serif" font-size="10px" fill="#000" opacity="1">May 09</text><text text-anchor="middle" transform="translate(735.6862745098039,15)" font-family="sans-serif" font-size="10px" fill="#000" opacity="1">May 16</text></g><g class="mark-rule role-axis-domain" pointer-events="none"><line transform="translate(0,0)" x2="800" y2="0" stroke="#888" stroke-width="1" opacity="1"/></g><g class="mark-text role-axis-title" pointer-events="none"><text text-anchor="middle" transform="translate(400,30)" font-family="sans-serif" font-size="11px" font-weight="bold" fill="#000" opacity="1">timestamp, x</text></g></g><path class="foreground" aria-hidden="true" d="" pointer-events="none" display="none"/></g></g><g class="mark-group role-axis" role="graphics-symbol" aria-roledescription="axis" aria-label="Y-axis titled 'value' for a linear scale with values from 0 to 16,000"><g transform="translate(0.5,0.5)"><path class="background" aria-hidden="true" d="M0,0h0v0h0Z" pointer-events="none"/><g><g class="mark-rule role-axis-tick" pointer-events="none"><line transform="translate(0,200)" x2="-5" y2="0" stroke="#888" stroke-width="1" opacity="1"/><line transform="translate(0,138)" x2="-5" y2="0" stroke="#888" stroke-width="1" opacity="1"/><line transform="translate(0,75)" x2="-5" y2="0" stroke="#888" stroke-width="1" opacity="1"/><line transform="translate(0,13)" x2="-5" y2="0" stroke="#888" stroke-width="1" opacity="1"/></g><g class="mark-text role-axis-label" pointer-events="none"><text text-anchor="end" transform="translate(-7,203)" font-family="sans-serif" font-size="10px" fill="#000" opacity="1">0</text><text text-anchor="end" transform="translate(-7,140.5)" font-family="sans-serif" font-size="10px" fill="#000" opacity="1">5,000</text><text text-anchor="end" transform="translate(-7,78)" font-family="sans-serif" font-size="10px" fill="#000" opacity="1">10,000</text><text text-anchor="end" transform="translate(-7,15.5)" font-family="sans-serif" font-size="10px" fill="#000" opacity="1">15,000</text></g><g class="mark-rule role-axis-domain" pointer-events="none"><line transform="translate(0,200)" x2="0" y2="-200" stroke="#888" stroke-width="1" opacity="1"/></g><g class="mark-text role-axis-title" pointer-events="none"><text text-anchor="middle" transform="translate(-41.5859375,100) rotate(-90) translate(0,-2)" font-family="sans-serif" font-size="11px" font-weight="bold" fill="#000" opacity="1">value</text></g></g><path class="foreground" aria-hidden="true" d="" pointer-events="none" display="none"/></g></g><g class="mark-group role-scope concat_1_layer_0_pathgroup" role="graphics-object" aria-roledescription="group mark container"><g transform="translate(0,0)"><path class="background" aria-hidden="true" d="M0,0h800v200h-800Z"/><g><g class="mark-area role-mark concat_1_layer_0_marks" role="graphics-object" aria-roledescription="area mark container"><path aria-label="timestamp: Feb 27, 2021; value: 0; variable: debt_deposit" role="graphics-symbol" aria-roledescription="area mark" d="M5.642,199.75L8.704,199.75L8.704,199.7L17.878,199.7L17.878,189.962L28.051,189.962L28.051,189.694L38.926,189.694L38.926,89.694L85.116,89.694L85.116,82.644L100.44,82.644L100.44,75.956L101.039,75.956L101.039,69.144L104.025,69.144L104.025,62.519L147.95,62.519L147.95,59.269L148.19,59.269L148.19,52.719L150.12,52.719L150.12,48.781L160.479,48.781L160.479,36.281L298.329,36.281L298.329,28.156L358.956,28.156L358.956,26.344L372.695,26.344L372.695,24.556L649.467,24.556L649.467,23.306L663.869,23.306L663.869,22.056L705.327,22.056L705.327,20.431L709.743,20.431L709.743,18.869L732.419,18.869L732.419,18.531L745.376,18.531L745.376,17.306L767.577,17.306L767.577,17.307L772.095,17.307L772.095,34.401L772.119,34.401L772.119,43.22L772.127,43.22L772.127,56.025L789.531,56.025L789.531,68.727L789.546,68.727L789.546,80.855L789.551,80.855L789.551,91.031L791.569,91.031L791.569,90.031L791.569,90.031L791.569,91.031L789.551,91.031L789.551,88.469L789.546,88.469L789.546,88.469L789.531,88.469L789.531,88.469L772.127,88.469L772.127,88.469L772.119,88.469L772.119,88.469L772.095,88.469L772.095,88.469L767.577,88.469L767.577,88.469L745.376,88.469L745.376,89.694L732.419,89.694L732.419,89.694L709.743,89.694L709.743,89.694L705.327,89.694L705.327,89.694L663.869,89.694L663.869,89.694L649.467,89.694L649.467,89.694L372.695,89.694L372.695,89.694L358.956,89.694L358.956,89.694L298.329,89.694L298.329,89.694L160.479,89.694L160.479,89.694L150.12,89.694L150.12,89.694L148.19,89.694L148.19,89.694L147.95,89.694L147.95,89.694L104.025,89.694L104.025,89.694L101.039,89.694L101.039,89.694L100.44,89.694L100.44,89.694L85.116,89.694L85.116,89.694L38.926,89.694L38.926,189.694L28.051,189.694L28.051,189.962L17.878,189.962L17.878,199.7L8.704,199.7L8.704,199.75L5.642,199.75Z" fill="#1f77b4"/></g></g><path class="foreground" aria-hidden="true" d="" display="none"/></g><g transform="translate(0,0)"><path class="background" aria-hidden="true" d="M0,0h800v200h-800Z"/><g><g class="mark-area role-mark concat_1_layer_0_marks" role="graphics-object" aria-roledescription="area mark container"><path aria-label="timestamp: Feb 27, 2021; value: 20; variable: non_debt_deposit" role="graphics-symbol" aria-roledescription="area mark" d="M5.642,199.75L8.704,199.75L8.704,199.7L17.878,199.7L17.878,189.962L28.051,189.962L28.051,189.694L38.926,189.694L38.926,89.694L85.116,89.694L85.116,89.694L100.44,89.694L100.44,89.694L101.039,89.694L101.039,89.694L104.025,89.694L104.025,89.694L147.95,89.694L147.95,89.694L148.19,89.694L148.19,89.694L150.12,89.694L150.12,89.694L160.479,89.694L160.479,89.694L298.329,89.694L298.329,89.694L358.956,89.694L358.956,89.694L372.695,89.694L372.695,89.694L649.467,89.694L649.467,89.694L663.869,89.694L663.869,89.694L705.327,89.694L705.327,89.694L709.743,89.694L709.743,89.694L732.419,89.694L732.419,89.694L745.376,89.694L745.376,88.469L767.577,88.469L767.577,88.469L772.095,88.469L772.095,88.469L772.119,88.469L772.119,88.469L772.127,88.469L772.127,88.469L789.531,88.469L789.531,88.469L789.546,88.469L789.546,88.469L789.551,88.469L789.551,91.031L791.569,91.031L791.569,90.031L791.569,200L791.569,200L789.551,200L789.551,200L789.546,200L789.546,200L789.531,200L789.531,200L772.127,200L772.127,200L772.119,200L772.119,200L772.095,200L772.095,200L767.577,200L767.577,200L745.376,200L745.376,200L732.419,200L732.419,200L709.743,200L709.743,200L705.327,200L705.327,200L663.869,200L663.869,200L649.467,200L649.467,200L372.695,200L372.695,200L358.956,200L358.956,200L298.329,200L298.329,200L160.479,200L160.479,200L150.12,200L150.12,200L148.19,200L148.19,200L147.95,200L147.95,200L104.025,200L104.025,200L101.039,200L101.039,200L100.44,200L100.44,200L85.116,200L85.116,200L38.926,200L38.926,200L28.051,200L28.051,200L17.878,200L17.878,200L8.704,200L8.704,200L5.642,200Z" fill="#ff7f0e"/></g></g><path class="foreground" aria-hidden="true" d="" display="none"/></g></g><g class="mark-group role-scope concat_1_layer_1_pathgroup" role="graphics-object" aria-roledescription="group mark container"><g transform="translate(0,0)"><path class="background" aria-hidden="true" d="M0,0h800v200h-800Z"/><g><g class="mark-line role-mark concat_1_layer_1_marks" role="graphics-object" aria-roledescription="line mark container"><path aria-label="timestamp: Feb 27, 2021; value: 20; variable: deposit" role="graphics-symbol" aria-roledescription="line mark" d="M5.642,199.75L8.704,199.75L8.704,199.7L17.878,199.7L17.878,189.962L28.051,189.962L28.051,189.694L38.926,189.694L38.926,89.694L85.116,89.694L85.116,82.644L100.44,82.644L100.44,75.956L101.039,75.956L101.039,69.144L104.025,69.144L104.025,62.519L147.95,62.519L147.95,59.269L148.19,59.269L148.19,52.719L150.12,52.719L150.12,48.781L160.479,48.781L160.479,36.281L298.329,36.281L298.329,28.156L358.956,28.156L358.956,26.344L372.695,26.344L372.695,24.556L649.467,24.556L649.467,23.306L663.869,23.306L663.869,22.056L705.327,22.056L705.327,20.431L709.743,20.431L709.743,18.869L732.419,18.869L732.419,18.531L745.376,18.531L745.376,17.306L767.577,17.306L767.577,17.307L772.095,17.307L772.095,34.401L772.119,34.401L772.119,43.22L772.127,43.22L772.127,56.025L789.531,56.025L789.531,68.727L789.546,68.727L789.546,80.855L789.551,80.855L789.551,91.031L791.569,91.031L791.569,90.031" stroke="black" stroke-width="2"/></g></g><path class="foreground" aria-hidden="true" d="" display="none"/></g></g><g class="mark-rule role-mark concat_1_layer_2_marks" role="graphics-object" aria-roledescription="rule mark container"><line aria-label="x: May 19, 2021" role="graphics-symbol" aria-roledescription="rule mark" transform="translate(763.921568627451,0)" x2="0" y2="200" stroke="grey" stroke-width="2" stroke-dasharray="10,2"/></g><g class="mark-group role-title"><g transform="translate(400,-19)"><path class="background" aria-hidden="true" d="M0,0h0v0h0Z" pointer-events="none"/><g><g class="mark-text role-title-text" role="graphics-symbol" aria-roledescription="title" aria-label="Title text 'ETH'" pointer-events="none"><text text-anchor="middle" transform="translate(0,10)" font-family="sans-serif" font-size="13px" font-weight="bold" fill="#000" opacity="1">ETH</text></g></g><path class="foreground" aria-hidden="true" d="" pointer-events="none" display="none"/></g></g></g><path class="foreground" aria-hidden="true" d="" display="none"/></g></g><g class="mark-group role-scope concat_2_group" role="graphics-object" aria-roledescription="group mark container"><g transform="translate(0,316)"><path class="background" aria-hidden="true" d="M0.5,0.5h800v200h-800Z" stroke="#ddd"/><g><g class="mark-group role-axis" aria-hidden="true"><g transform="translate(0.5,200.5)"><path class="background" aria-hidden="true" d="M0,0h0v0h0Z" pointer-events="none"/><g><g class="mark-rule role-axis-grid" pointer-events="none"><line transform="translate(11,-200)" x2="0" y2="200" stroke="#ddd" stroke-width="1" opacity="1"/><line transform="translate(77,-200)" x2="0" y2="200" stroke="#ddd" stroke-width="1" opacity="1"/><line transform="translate(143,-200)" x2="0" y2="200" stroke="#ddd" stroke-width="1" opacity="1"/><line transform="translate(209,-200)" x2="0" y2="200" stroke="#ddd" stroke-width="1" opacity="1"/><line transform="translate(275,-200)" x2="0" y2="200" stroke="#ddd" stroke-width="1" opacity="1"/><line transform="translate(340,-200)" x2="0" y2="200" stroke="#ddd" stroke-width="1" opacity="1"/><line transform="translate(406,-200)" x2="0" y2="200" stroke="#ddd" stroke-width="1" opacity="1"/><line transform="translate(472,-200)" x2="0" y2="200" stroke="#ddd" stroke-width="1" opacity="1"/><line transform="translate(538,-200)" x2="0" y2="200" stroke="#ddd" stroke-width="1" opacity="1"/><line transform="translate(604,-200)" x2="0" y2="200" stroke="#ddd" stroke-width="1" opacity="1"/><line transform="translate(670,-200)" x2="0" y2="200" stroke="#ddd" stroke-width="1" opacity="1"/><line transform="translate(736,-200)" x2="0" y2="200" stroke="#ddd" stroke-width="1" opacity="1"/></g></g><path class="foreground" aria-hidden="true" d="" pointer-events="none" display="none"/></g></g><g class="mark-group role-axis" aria-hidden="true"><g transform="translate(0.5,0.5)"><path class="background" aria-hidden="true" d="M0,0h0v0h0Z" pointer-events="none"/><g><g class="mark-rule role-axis-grid" pointer-events="none"><line transform="translate(0,200)" x2="800" y2="0" stroke="#ddd" stroke-width="1" opacity="1"/><line transform="translate(0,171)" x2="800" y2="0" stroke="#ddd" stroke-width="1" opacity="1"/><line transform="translate(0,143)" x2="800" y2="0" stroke="#ddd" stroke-width="1" opacity="1"/><line transform="translate(0,114)" x2="800" y2="0" stroke="#ddd" stroke-width="1" opacity="1"/><line transform="translate(0,86)" x2="800" y2="0" stroke="#ddd" stroke-width="1" opacity="1"/><line transform="translate(0,57)" x2="800" y2="0" stroke="#ddd" stroke-width="1" opacity="1"/><line transform="translate(0,29)" x2="800" y2="0" stroke="#ddd" stroke-width="1" opacity="1"/><line transform="translate(0,0)" x2="800" y2="0" stroke="#ddd" stroke-width="1" opacity="1"/></g></g><path class="foreground" aria-hidden="true" d="" pointer-events="none" display="none"/></g></g><g class="mark-group role-axis" role="graphics-symbol" aria-roledescription="axis" aria-label="X-axis titled 'timestamp, x' for a time scale with values from Friday, 26 February 2021, 7:00:00 PM to Saturday, 22 May 2021, 8:00:00 PM"><g transform="translate(0.5,200.5)"><path class="background" aria-hidden="true" d="M0,0h0v0h0Z" pointer-events="none"/><g><g class="mark-rule role-axis-tick" pointer-events="none"><line transform="translate(11,0)" x2="0" y2="5" stroke="#888" stroke-width="1" opacity="1"/><line transform="translate(77,0)" x2="0" y2="5" stroke="#888" stroke-width="1" opacity="1"/><line transform="translate(143,0)" x2="0" y2="5" stroke="#888" stroke-width="1" opacity="1"/><line transform="translate(209,0)" x2="0" y2="5" stroke="#888" stroke-width="1" opacity="1"/><line transform="translate(275,0)" x2="0" y2="5" stroke="#888" stroke-width="1" opacity="1"/><line transform="translate(340,0)" x2="0" y2="5" stroke="#888" stroke-width="1" opacity="1"/><line transform="translate(406,0)" x2="0" y2="5" stroke="#888" stroke-width="1" opacity="1"/><line transform="translate(472,0)" x2="0" y2="5" stroke="#888" stroke-width="1" opacity="1"/><line transform="translate(538,0)" x2="0" y2="5" stroke="#888" stroke-width="1" opacity="1"/><line transform="translate(604,0)" x2="0" y2="5" stroke="#888" stroke-width="1" opacity="1"/><line transform="translate(670,0)" x2="0" y2="5" stroke="#888" stroke-width="1" opacity="1"/><line transform="translate(736,0)" x2="0" y2="5" stroke="#888" stroke-width="1" opacity="1"/></g><g class="mark-text role-axis-label" pointer-events="none"><text text-anchor="middle" transform="translate(11.372549019607844,15)" font-family="sans-serif" font-size="10px" fill="#000" opacity="1">Feb 28</text><text text-anchor="middle" transform="translate(77.25490196078432,15)" font-family="sans-serif" font-size="10px" fill="#000" opacity="1">Mar 07</text><text text-anchor="middle" transform="translate(143.13725490196077,15)" font-family="sans-serif" font-size="10px" fill="#000" opacity="1">Mar 14</text><text text-anchor="middle" transform="translate(208.62745098039218,15)" font-family="sans-serif" font-size="10px" fill="#000" opacity="1">Mar 21</text><text text-anchor="middle" transform="translate(274.5098039215686,15)" font-family="sans-serif" font-size="10px" fill="#000" opacity="1">Mar 28</text><text text-anchor="middle" transform="translate(340.3921568627451,15)" font-family="sans-serif" font-size="10px" fill="#000" opacity="1">Apr 04</text><text text-anchor="middle" transform="translate(406.27450980392155,15)" font-family="sans-serif" font-size="10px" fill="#000" opacity="1">Apr 11</text><text text-anchor="middle" transform="translate(472.15686274509807,15)" font-family="sans-serif" font-size="10px" fill="#000" opacity="1">Apr 18</text><text text-anchor="middle" transform="translate(538.0392156862746,15)" font-family="sans-serif" font-size="10px" fill="#000" opacity="1">Apr 25</text><text text-anchor="middle" transform="translate(603.9215686274509,15)" font-family="sans-serif" font-size="10px" fill="#000" opacity="1">May 02</text><text text-anchor="middle" transform="translate(669.8039215686275,15)" font-family="sans-serif" font-size="10px" fill="#000" opacity="1">May 09</text><text text-anchor="middle" transform="translate(735.6862745098039,15)" font-family="sans-serif" font-size="10px" fill="#000" opacity="1">May 16</text></g><g class="mark-rule role-axis-domain" pointer-events="none"><line transform="translate(0,0)" x2="800" y2="0" stroke="#888" stroke-width="1" opacity="1"/></g><g class="mark-text role-axis-title" pointer-events="none"><text text-anchor="middle" transform="translate(400,30)" font-family="sans-serif" font-size="11px" font-weight="bold" fill="#000" opacity="1">timestamp, x</text></g></g><path class="foreground" aria-hidden="true" d="" pointer-events="none" display="none"/></g></g><g class="mark-group role-axis" role="graphics-symbol" aria-roledescription="axis" aria-label="Y-axis titled 'value' for a linear scale with values from 0 to 1,400"><g transform="translate(0.5,0.5)"><path class="background" aria-hidden="true" d="M0,0h0v0h0Z" pointer-events="none"/><g><g class="mark-rule role-axis-tick" pointer-events="none"><line transform="translate(0,200)" x2="-5" y2="0" stroke="#888" stroke-width="1" opacity="1"/><line transform="translate(0,171)" x2="-5" y2="0" stroke="#888" stroke-width="1" opacity="1"/><line transform="translate(0,143)" x2="-5" y2="0" stroke="#888" stroke-width="1" opacity="1"/><line transform="translate(0,114)" x2="-5" y2="0" stroke="#888" stroke-width="1" opacity="1"/><line transform="translate(0,86)" x2="-5" y2="0" stroke="#888" stroke-width="1" opacity="1"/><line transform="translate(0,57)" x2="-5" y2="0" stroke="#888" stroke-width="1" opacity="1"/><line transform="translate(0,29)" x2="-5" y2="0" stroke="#888" stroke-width="1" opacity="1"/><line transform="translate(0,0)" x2="-5" y2="0" stroke="#888" stroke-width="1" opacity="1"/></g><g class="mark-text role-axis-label" pointer-events="none"><text text-anchor="end" transform="translate(-7,203)" font-family="sans-serif" font-size="10px" fill="#000" opacity="1">0</text><text text-anchor="end" transform="translate(-7,174.42857142857144)" font-family="sans-serif" font-size="10px" fill="#000" opacity="1">200</text><text text-anchor="end" transform="translate(-7,145.85714285714286)" font-family="sans-serif" font-size="10px" fill="#000" opacity="1">400</text><text text-anchor="end" transform="translate(-7,117.28571428571428)" font-family="sans-serif" font-size="10px" fill="#000" opacity="1">600</text><text text-anchor="end" transform="translate(-7,88.71428571428572)" font-family="sans-serif" font-size="10px" fill="#000" opacity="1">800</text><text text-anchor="end" transform="translate(-7,60.14285714285714)" font-family="sans-serif" font-size="10px" fill="#000" opacity="1">1,000</text><text text-anchor="end" transform="translate(-7,31.57142857142858)" font-family="sans-serif" font-size="10px" fill="#000" opacity="1">1,200</text><text text-anchor="end" transform="translate(-7,3)" font-family="sans-serif" font-size="10px" fill="#000" opacity="1">1,400</text></g><g class="mark-rule role-axis-domain" pointer-events="none"><line transform="translate(0,200)" x2="0" y2="-200" stroke="#888" stroke-width="1" opacity="1"/></g><g class="mark-text role-axis-title" pointer-events="none"><text text-anchor="middle" transform="translate(-36.0244140625,100) rotate(-90) translate(0,-2)" font-family="sans-serif" font-size="11px" font-weight="bold" fill="#000" opacity="1">value</text></g></g><path class="foreground" aria-hidden="true" d="" pointer-events="none" display="none"/></g></g><g class="mark-group role-scope concat_2_layer_0_pathgroup" role="graphics-object" aria-roledescription="group mark container"><g transform="translate(0,0)"><path class="background" aria-hidden="true" d="M0,0h800v200h-800Z"/><g><g class="mark-area role-mark concat_2_layer_0_marks" role="graphics-object" aria-roledescription="area mark container"><path aria-label="timestamp: Feb 28, 2021; value: 14.9904978; variable: debt_deposit" role="graphics-symbol" aria-roledescription="area mark" d="M18.084,197.858L18.129,197.858L18.129,195.776L18.233,195.776L18.233,194.337L27.986,194.337L27.986,192.855L38.981,192.855L38.981,178.561L39.094,178.561L39.094,169.923L53.319,169.923L53.319,163.579L57.919,163.579L57.919,160.461L71.397,160.461L71.397,156.52L74.167,156.52L74.167,152.513L122.206,152.513L122.206,150.071L160.224,150.071L160.224,149.552L197.21,149.552L197.21,147.137L202.665,147.137L202.665,144.75L203.437,144.75L203.437,142.368L212.702,142.368L212.702,139.9L215.583,139.9L215.583,137.469L226.757,137.469L226.757,136.185L259.913,136.185L259.913,131.159L262.948,131.159L262.948,129.61L280.001,129.61L280.001,127.604L280.161,127.604L280.161,126.334L298.391,126.334L298.391,124.721L358.949,124.721L358.949,124.359L471.539,124.359L471.539,112.257L485.744,112.257L485.744,110.987L504.858,110.987L504.858,108.73L562.078,108.73L562.078,105.203L563.393,105.203L563.393,101.338L565.359,101.338L565.359,99.307L571.71,99.307L571.71,94.696L580.848,94.696L580.848,93.502L602.303,93.502L602.303,91.044L608.962,91.044L608.962,88.174L612.558,88.174L612.558,85.089L612.652,85.089L612.652,82.649L622.646,82.649L622.646,57.459L629.66,57.459L629.66,48.098L631.281,48.098L631.281,45.514L634.882,45.514L634.882,42.948L638.583,42.948L638.583,35.48L649.431,35.48L649.431,29.151L670.446,29.151L670.446,28.187L673.963,28.187L673.963,24.479L685.692,24.479L685.692,21.908L694.726,21.908L694.726,20.181L743.668,20.181L743.668,19.899L764.13,19.899L764.13,18.471L764.152,18.471L764.152,12.756L766.921,12.756L766.921,12.756L767.348,12.756L767.348,31.696L767.376,31.696L767.376,47.324L767.403,47.324L767.403,59.884L767.561,59.884L767.561,59.884L767.57,59.884L767.57,59.884L767.763,59.884L767.763,72.234L767.775,72.234L767.775,76.136L767.781,76.136L767.781,82.533L767.883,82.533L767.883,92.147L767.891,92.147L767.891,100.471L767.9,100.471L767.9,111.981L772.012,111.981L772.012,127.166L772.062,127.166L772.062,136.149L772.073,136.149L772.073,143.468L784.44,143.468L784.44,142.693L784.44,200L784.44,200L772.073,200L772.073,200L772.062,200L772.062,200L772.012,200L772.012,200L767.9,200L767.9,200L767.891,200L767.891,200L767.883,200L767.883,200L767.781,200L767.781,200L767.775,200L767.775,200L767.763,200L767.763,200L767.57,200L767.57,200L767.561,200L767.561,200L767.403,200L767.403,200L767.376,200L767.376,200L767.348,200L767.348,200L766.921,200L766.921,200L764.152,200L764.152,200L764.13,200L764.13,200L743.668,200L743.668,200L694.726,200L694.726,200L685.692,200L685.692,200L673.963,200L673.963,200L670.446,200L670.446,200L649.431,200L649.431,200L638.583,200L638.583,200L634.882,200L634.882,200L631.281,200L631.281,200L629.66,200L629.66,200L622.646,200L622.646,200L612.652,200L612.652,200L612.558,200L612.558,200L608.962,200L608.962,200L602.303,200L602.303,200L580.848,200L580.848,200L571.71,200L571.71,200L565.359,200L565.359,200L563.393,200L563.393,200L562.078,200L562.078,200L504.858,200L504.858,200L485.744,200L485.744,200L471.539,200L471.539,200L358.949,200L358.949,200L298.391,200L298.391,200L280.161,200L280.161,200L280.001,200L280.001,200L262.948,200L262.948,200L259.913,200L259.913,200L226.757,200L226.757,200L215.583,200L215.583,200L212.702,200L212.702,200L203.437,200L203.437,200L202.665,200L202.665,200L197.21,200L197.21,200L160.224,200L160.224,200L122.206,200L122.206,200L74.167,200L74.167,200L71.397,200L71.397,200L57.919,200L57.919,200L53.319,200L53.319,200L39.094,200L39.094,200L38.981,200L38.981,200L27.986,200L27.986,200L18.233,200L18.233,200L18.129,200L18.129,200L18.084,200Z" fill="#1f77b4"/></g></g><path class="foreground" aria-hidden="true" d="" display="none"/></g><g transform="translate(0,0)"><path class="background" aria-hidden="true" d="M0,0h800v200h-800Z"/><g><g class="mark-area role-mark concat_2_layer_0_marks" role="graphics-object" aria-roledescription="area mark container"><path aria-label="timestamp: Feb 28, 2021; value: 0.00103835; variable: non_debt_deposit" role="graphics-symbol" aria-roledescription="area mark" d="M18.084,200L18.129,200L18.129,200L18.233,200L18.233,200L27.986,200L27.986,200L38.981,200L38.981,200L39.094,200L39.094,200L53.319,200L53.319,200L57.919,200L57.919,200L71.397,200L71.397,200L74.167,200L74.167,200L122.206,200L122.206,200L160.224,200L160.224,200L197.21,200L197.21,200L202.665,200L202.665,200L203.437,200L203.437,200L212.702,200L212.702,200L215.583,200L215.583,200L226.757,200L226.757,200L259.913,200L259.913,200L262.948,200L262.948,200L280.001,200L280.001,200L280.161,200L280.161,200L298.391,200L298.391,200L358.949,200L358.949,200L471.539,200L471.539,200L485.744,200L485.744,200L504.858,200L504.858,200L562.078,200L562.078,200L563.393,200L563.393,200L565.359,200L565.359,200L571.71,200L571.71,200L580.848,200L580.848,200L602.303,200L602.303,200L608.962,200L608.962,200L612.558,200L612.558,200L612.652,200L612.652,200L622.646,200L622.646,200L629.66,200L629.66,200L631.281,200L631.281,200L634.882,200L634.882,200L638.583,200L638.583,200L649.431,200L649.431,200L670.446,200L670.446,200L673.963,200L673.963,200L685.692,200L685.692,200L694.726,200L694.726,200L743.668,200L743.668,200L764.13,200L764.13,200L764.152,200L764.152,200L766.921,200L766.921,200L767.348,200L767.348,200L767.376,200L767.376,200L767.403,200L767.403,200L767.561,200L767.561,200L767.57,200L767.57,200L767.763,200L767.763,200L767.775,200L767.775,200L767.781,200L767.781,200L767.883,200L767.883,200L767.891,200L767.891,200L767.9,200L767.9,200L772.012,200L772.012,200L772.062,200L772.062,200L772.073,200L772.073,200L784.44,200L784.44,200L784.44,200L784.44,200L772.073,200L772.073,200L772.062,200L772.062,200L772.012,200L772.012,200L767.9,200L767.9,200L767.891,200L767.891,200L767.883,200L767.883,200L767.781,200L767.781,200L767.775,200L767.775,200L767.763,200L767.763,200L767.57,200L767.57,200L767.561,200L767.561,200L767.403,200L767.403,200L767.376,200L767.376,200L767.348,200L767.348,200L766.921,200L766.921,200L764.152,200L764.152,200L764.13,200L764.13,200L743.668,200L743.668,200L694.726,200L694.726,200L685.692,200L685.692,200L673.963,200L673.963,200L670.446,200L670.446,200L649.431,200L649.431,200L638.583,200L638.583,200L634.882,200L634.882,200L631.281,200L631.281,200L629.66,200L629.66,200L622.646,200L622.646,200L612.652,200L612.652,200L612.558,200L612.558,200L608.962,200L608.962,200L602.303,200L602.303,200L580.848,200L580.848,200L571.71,200L571.71,200L565.359,200L565.359,200L563.393,200L563.393,200L562.078,200L562.078,200L504.858,200L504.858,200L485.744,200L485.744,200L471.539,200L471.539,200L358.949,200L358.949,200L298.391,200L298.391,200L280.161,200L280.161,200L280.001,200L280.001,200L262.948,200L262.948,200L259.913,200L259.913,200L226.757,200L226.757,200L215.583,200L215.583,200L212.702,200L212.702,200L203.437,200L203.437,200L202.665,200L202.665,200L197.21,200L197.21,200L160.224,200L160.224,200L122.206,200L122.206,200L74.167,200L74.167,200L71.397,200L71.397,200L57.919,200L57.919,200L53.319,200L53.319,200L39.094,200L39.094,200L38.981,200L38.981,200L27.986,200L27.986,200L18.233,200L18.233,200L18.129,200L18.129,200L18.084,200Z" fill="#ff7f0e"/></g></g><path class="foreground" aria-hidden="true" d="" display="none"/></g></g><g class="mark-group role-scope concat_2_layer_1_pathgroup" role="graphics-object" aria-roledescription="group mark container"><g transform="translate(0,0)"><path class="background" aria-hidden="true" d="M0,0h800v200h-800Z"/><g><g class="mark-line role-mark concat_2_layer_1_marks" role="graphics-object" aria-roledescription="line mark container"><path aria-label="timestamp: Feb 28, 2021; value: 14.99153615; variable: deposit" role="graphics-symbol" aria-roledescription="line mark" d="M18.084,197.858L18.129,197.858L18.129,195.776L18.233,195.776L18.233,194.337L27.986,194.337L27.986,192.855L38.981,192.855L38.981,178.561L39.094,178.561L39.094,169.923L53.319,169.923L53.319,163.579L57.919,163.579L57.919,160.461L71.397,160.461L71.397,156.52L74.167,156.52L74.167,152.513L122.206,152.513L122.206,150.071L160.224,150.071L160.224,149.552L197.21,149.552L197.21,147.137L202.665,147.137L202.665,144.75L203.437,144.75L203.437,142.368L212.702,142.368L212.702,139.9L215.583,139.9L215.583,137.469L226.757,137.469L226.757,136.185L259.913,136.185L259.913,131.159L262.948,131.159L262.948,129.61L280.001,129.61L280.001,127.604L280.161,127.604L280.161,126.334L298.391,126.334L298.391,124.721L358.949,124.721L358.949,124.359L471.539,124.359L471.539,112.257L485.744,112.257L485.744,110.987L504.858,110.987L504.858,108.73L562.078,108.73L562.078,105.203L563.393,105.203L563.393,101.338L565.359,101.338L565.359,99.307L571.71,99.307L571.71,94.696L580.848,94.696L580.848,93.502L602.303,93.502L602.303,91.044L608.962,91.044L608.962,88.174L612.558,88.174L612.558,85.089L612.652,85.089L612.652,82.649L622.646,82.649L622.646,57.459L629.66,57.459L629.66,48.098L631.281,48.098L631.281,45.514L634.882,45.514L634.882,42.948L638.583,42.948L638.583,35.48L649.431,35.48L649.431,29.151L670.446,29.151L670.446,28.187L673.963,28.187L673.963,24.479L685.692,24.479L685.692,21.908L694.726,21.908L694.726,20.181L743.668,20.181L743.668,19.899L764.13,19.899L764.13,18.471L764.152,18.471L764.152,12.756L766.921,12.756L766.921,12.756L767.348,12.756L767.348,31.696L767.376,31.696L767.376,47.324L767.403,47.324L767.403,59.884L767.561,59.884L767.561,59.884L767.57,59.884L767.57,59.884L767.763,59.884L767.763,72.234L767.775,72.234L767.775,76.136L767.781,76.136L767.781,82.533L767.883,82.533L767.883,92.147L767.891,92.147L767.891,100.471L767.9,100.471L767.9,111.981L772.012,111.981L772.012,127.166L772.062,127.166L772.062,136.149L772.073,136.149L772.073,143.468L784.44,143.468L784.44,142.693" stroke="black" stroke-width="2"/></g></g><path class="foreground" aria-hidden="true" d="" display="none"/></g></g><g class="mark-rule role-mark concat_2_layer_2_marks" role="graphics-object" aria-roledescription="rule mark container"><line aria-label="x: May 19, 2021" role="graphics-symbol" aria-roledescription="rule mark" transform="translate(763.921568627451,0)" x2="0" y2="200" stroke="grey" stroke-width="2" stroke-dasharray="10,2"/></g><g class="mark-group role-title"><g transform="translate(400,-22)"><path class="background" aria-hidden="true" d="M0,0h0v0h0Z" pointer-events="none"/><g><g class="mark-text role-title-text" role="graphics-symbol" aria-roledescription="title" aria-label="Title text 'WBTC'" pointer-events="none"><text text-anchor="middle" transform="translate(0,10)" font-family="sans-serif" font-size="13px" font-weight="bold" fill="#000" opacity="1">WBTC</text></g></g><path class="foreground" aria-hidden="true" d="" pointer-events="none" display="none"/></g></g></g><path class="foreground" aria-hidden="true" d="" display="none"/></g></g><g class="mark-group role-legend" role="graphics-symbol" aria-roledescription="legend" aria-label="Symbol legend titled 'variable' for fill color and stroke color with 3 values: debt_deposit, deposit, non_debt_deposit"><g transform="translate(819,0)"><path class="background" aria-hidden="true" d="M0,0h96v61h-96Z" pointer-events="none"/><g><g class="mark-group role-legend-entry"><g transform="translate(0,16)"><path class="background" aria-hidden="true" d="M0,0h0v0h0Z" pointer-events="none"/><g><g class="mark-group role-scope" role="graphics-object" aria-roledescription="group mark container"><g transform="translate(0,0)"><path class="background" aria-hidden="true" d="M0,0h95.5166015625v12.5h-95.5166015625Z" pointer-events="none" opacity="1"/><g><g class="mark-symbol role-legend-symbol" pointer-events="none"><path transform="translate(6,6)" d="M5,0A5,5,0,1,1,-5,0A5,5,0,1,1,5,0" fill="#1f77b4" stroke="#1f77b4" stroke-width="1.5" opacity="1"/></g><g class="mark-text role-legend-label" pointer-events="none"><text text-anchor="start" transform="translate(16,9)" font-family="sans-serif" font-size="10px" fill="#000" opacity="1">debt_deposit</text></g></g><path class="foreground" aria-hidden="true" d="" pointer-events="none" display="none"/></g><g transform="translate(0,16)"><path class="background" aria-hidden="true" d="M0,0h95.5166015625v12.5h-95.5166015625Z" pointer-events="none" opacity="1"/><g><g class="mark-symbol role-legend-symbol" pointer-events="none"><path transform="translate(6,6)" d="M5,0A5,5,0,1,1,-5,0A5,5,0,1,1,5,0" fill="black" stroke="black" stroke-width="1.5" opacity="1"/></g><g class="mark-text role-legend-label" pointer-events="none"><text text-anchor="start" transform="translate(16,9)" font-family="sans-serif" font-size="10px" fill="#000" opacity="1">deposit</text></g></g><path class="foreground" aria-hidden="true" d="" pointer-events="none" display="none"/></g><g transform="translate(0,32)"><path class="background" aria-hidden="true" d="M0,0h95.5166015625v12.5h-95.5166015625Z" pointer-events="none" opacity="1"/><g><g class="mark-symbol role-legend-symbol" pointer-events="none"><path transform="translate(6,6)" d="M5,0A5,5,0,1,1,-5,0A5,5,0,1,1,5,0" fill="#ff7f0e" stroke="#ff7f0e" stroke-width="1.5" opacity="1"/></g><g class="mark-text role-legend-label" pointer-events="none"><text text-anchor="start" transform="translate(16,9)" font-family="sans-serif" font-size="10px" fill="#000" opacity="1">non_debt_deposit</text></g></g><path class="foreground" aria-hidden="true" d="" pointer-events="none" display="none"/></g></g></g><path class="foreground" aria-hidden="true" d="" pointer-events="none" display="none"/></g></g><g class="mark-text role-legend-title" pointer-events="none"><text text-anchor="start" transform="translate(0,9)" font-family="sans-serif" font-size="11px" font-weight="bold" fill="#000" opacity="1">variable</text></g></g><path class="foreground" aria-hidden="true" d="" pointer-events="none" display="none"/></g></g><g class="mark-group role-title"><g transform="translate(430.70703125,-28)"><path class="background" aria-hidden="true" d="M0,0h0v0h0Z" pointer-events="none"/><g><g class="mark-text role-title-text" role="graphics-symbol" aria-roledescription="title" aria-label="Title text 'Total Deposits'" pointer-events="none"><text text-anchor="middle" transform="translate(0,19)" font-family="sans-serif" font-size="24px" font-weight="bold" fill="#000" opacity="1">Total Deposits</text></g></g><path class="foreground" aria-hidden="true" d="" pointer-events="none" display="none"/></g></g></g><path class="foreground" aria-hidden="true" d="" display="none"/></g></g></g></svg>